# This file uses centimeters as units for non-parametric coordinates.

mtllib L_eyeball.mtl
g default
v 0.290870 1.262535 1.359892
v 0.383760 1.237645 1.368317
v 0.358871 1.144755 1.359892
v 0.476650 1.212755 1.359892
v 0.315760 1.305645 1.359892
v 0.408650 1.330535 1.359892
v 0.315760 1.169645 1.359892
v 0.451760 1.169645 1.359892
v 0.358871 1.330535 1.359892
v 0.451760 1.305645 1.359892
v 0.290870 1.212755 1.359892
v 0.408650 1.144755 1.359892
v 0.476650 1.262535 1.359892
v 0.435631 1.393264 1.347786
v 0.503091 1.354316 1.347786
v 0.542040 1.286855 1.347786
v 0.542040 1.208959 1.347786
v 0.503091 1.141498 1.347786
v 0.435631 1.102550 1.347786
v 0.357734 1.102550 1.347786
v 0.290275 1.141498 1.347786
v 0.251326 1.208959 1.347786
v 0.251326 1.286855 1.347786
v 0.290275 1.354316 1.347786
v 0.357734 1.393264 1.347786
v 0.396848 1.286489 1.366211
v 0.419516 1.273401 1.366211
v 0.432604 1.250733 1.366211
v 0.432604 1.224558 1.366211
v 0.419516 1.201889 1.366211
v 0.396848 1.188801 1.366211
v 0.370672 1.188801 1.366211
v 0.348004 1.201889 1.366211
v 0.334916 1.224558 1.366211
v 0.334916 1.250733 1.366211
v 0.348004 1.273401 1.366211
v 0.370672 1.286489 1.366211
v 0.287537 1.237645 1.359892
v 0.300427 1.285757 1.359892
v 0.383760 1.141421 1.359892
v 0.335648 1.154312 1.359892
v 0.479985 1.237645 1.359892
v 0.467093 1.189533 1.359892
v 0.335648 1.320978 1.359892
v 0.383760 1.333870 1.359892
v 0.431873 1.320978 1.359892
v 0.300427 1.189533 1.359892
v 0.431873 1.154312 1.359892
v 0.467093 1.285758 1.359892
v 0.471970 1.378309 1.347786
v 0.396683 1.398482 1.347786
v 0.527084 1.323195 1.347786
v 0.547258 1.247907 1.347786
v 0.527084 1.172620 1.347786
v 0.471970 1.117505 1.347786
v 0.396683 1.097332 1.347786
v 0.321395 1.117505 1.347786
v 0.266281 1.172620 1.347786
v 0.246107 1.247907 1.347786
v 0.266281 1.323195 1.347786
v 0.321395 1.378309 1.347786
v 0.416531 1.294405 1.364573
v 0.383760 1.303186 1.364573
v 0.440520 1.270416 1.364573
v 0.449301 1.237645 1.364573
v 0.440520 1.204875 1.364573
v 0.416531 1.180885 1.364573
v 0.383760 1.172104 1.364573
v 0.350990 1.180885 1.364573
v 0.327000 1.204875 1.364573
v 0.318219 1.237645 1.364573
v 0.327000 1.270416 1.364573
v 0.350990 1.294405 1.364573
vn -0.203302 0.050600 0.977808
vn -0.172997 0.095498 0.980282
vn -0.254792 0.137496 0.957171
vn -0.327089 0.076797 0.941868
vn -0.203302 0.050600 0.977808
vn -0.327089 0.076797 0.941868
vn -0.386209 -0.012800 0.922322
vn -0.217702 -0.003400 0.976009
vn -0.203302 0.050600 0.977808
vn -0.217702 -0.003400 0.976009
vn -0.123099 0.000000 0.992394
vn -0.078499 0.021000 0.996693
vn -0.203302 0.050600 0.977808
vn -0.078499 0.021000 0.996693
vn -0.106599 0.061600 0.992392
vn -0.172997 0.095498 0.980282
vn 0.000000 0.000000 1.000000
vn 0.057499 0.057499 0.996688
vn 0.061600 0.106599 0.992392
vn 0.021000 0.078499 0.996693
vn 0.000000 0.000000 1.000000
vn 0.021000 0.078499 0.996693
vn 0.000000 0.123099 0.992394
vn -0.021000 0.078499 0.996693
vn 0.000000 0.000000 1.000000
vn -0.021000 0.078499 0.996693
vn -0.061600 0.106599 0.992392
vn -0.057499 0.057499 0.996688
vn 0.000000 0.000000 1.000000
vn -0.057499 0.057499 0.996688
vn -0.106599 0.061600 0.992392
vn -0.078499 0.021000 0.996693
vn 0.000000 0.000000 1.000000
vn -0.078499 0.021000 0.996693
vn -0.123099 0.000000 0.992394
vn -0.078499 -0.021000 0.996693
vn 0.000000 0.000000 1.000000
vn -0.078499 -0.021000 0.996693
vn -0.106599 -0.061600 0.992392
vn -0.057499 -0.057499 0.996688
vn 0.000000 0.000000 1.000000
vn -0.057499 -0.057499 0.996688
vn -0.061600 -0.106599 0.992392
vn -0.021000 -0.078499 0.996693
vn 0.000000 0.000000 1.000000
vn -0.021000 -0.078499 0.996693
vn 0.000000 -0.123099 0.992394
vn 0.021000 -0.078499 0.996693
vn 0.000000 0.000000 1.000000
vn 0.021000 -0.078499 0.996693
vn 0.061600 -0.106599 0.992392
vn 0.057499 -0.057499 0.996688
vn 0.000000 0.000000 1.000000
vn 0.057499 -0.057499 0.996688
vn 0.106599 -0.061600 0.992392
vn 0.078499 -0.021000 0.996693
vn 0.000000 0.000000 1.000000
vn 0.078499 -0.021000 0.996693
vn 0.123099 0.000000 0.992394
vn 0.078499 0.021000 0.996693
vn 0.000000 0.000000 1.000000
vn 0.078499 0.021000 0.996693
vn 0.106599 0.061600 0.992392
vn 0.057499 0.057499 0.996688
vn -0.060102 -0.211909 0.975440
vn -0.115002 -0.194603 0.974117
vn -0.226895 -0.370291 0.900779
vn -0.113501 -0.375602 0.919805
vn -0.060102 -0.211909 0.975440
vn -0.113501 -0.375602 0.919805
vn -0.011300 -0.342396 0.939488
vn -0.003800 -0.209405 0.977822
vn -0.060102 -0.211909 0.975440
vn -0.003800 -0.209405 0.977822
vn 0.000000 -0.123099 0.992394
vn -0.021000 -0.078499 0.996693
vn -0.060102 -0.211909 0.975440
vn -0.021000 -0.078499 0.996693
vn -0.061600 -0.106599 0.992392
vn -0.115002 -0.194603 0.974117
vn 0.160599 -0.045000 0.985993
vn 0.147408 -0.088005 0.985153
vn 0.172210 -0.103006 0.979660
vn 0.176801 -0.049400 0.983006
vn 0.160599 -0.045000 0.985993
vn 0.176801 -0.049400 0.983006
vn 0.171611 -0.001300 0.985164
vn 0.160700 -0.001400 0.987002
vn 0.160599 -0.045000 0.985993
vn 0.160700 -0.001400 0.987002
vn 0.123099 0.000000 0.992394
vn 0.078499 -0.021000 0.996693
vn 0.160599 -0.045000 0.985993
vn 0.078499 -0.021000 0.996693
vn 0.106599 -0.061600 0.992392
vn 0.147408 -0.088005 0.985153
vn -0.135900 0.131200 0.981997
vn -0.091805 0.153008 0.983952
vn -0.114004 0.189007 0.975336
vn -0.181310 0.173209 0.968052
vn -0.135900 0.131200 0.981997
vn -0.181310 0.173209 0.968052
vn -0.254792 0.137496 0.957171
vn -0.172997 0.095498 0.980282
vn -0.135900 0.131200 0.981997
vn -0.172997 0.095498 0.980282
vn -0.106599 0.061600 0.992392
vn -0.057499 0.057499 0.996688
vn -0.135900 0.131200 0.981997
vn -0.057499 0.057499 0.996688
vn -0.061600 0.106599 0.992392
vn -0.091805 0.153008 0.983952
vn 0.040602 0.156507 0.986842
vn 0.078004 0.136607 0.987550
vn 0.081105 0.141809 0.986566
vn 0.042998 0.164993 0.985357
vn 0.040602 0.156507 0.986842
vn 0.042998 0.164993 0.985357
vn -0.002000 0.181806 0.983332
vn -0.001900 0.164610 0.986357
vn 0.040602 0.156507 0.986842
vn -0.001900 0.164610 0.986357
vn 0.000000 0.123099 0.992394
vn 0.021000 0.078499 0.996693
vn 0.040602 0.156507 0.986842
vn 0.021000 0.078499 0.996693
vn 0.061600 0.106599 0.992392
vn 0.078004 0.136607 0.987550
vn -0.164000 -0.163000 0.972900
vn -0.198300 -0.115600 0.973300
vn -0.391126 -0.232216 0.890560
vn -0.325803 -0.319803 0.889707
vn -0.164000 -0.163000 0.972900
vn -0.325803 -0.319803 0.889707
vn -0.226895 -0.370291 0.900779
vn -0.115002 -0.194603 0.974117
vn -0.164000 -0.163000 0.972900
vn -0.115002 -0.194603 0.974117
vn -0.061600 -0.106599 0.992392
vn -0.057499 -0.057499 0.996688
vn -0.164000 -0.163000 0.972900
vn -0.057499 -0.057499 0.996688
vn -0.106599 -0.061600 0.992392
vn -0.198300 -0.115600 0.973300
vn 0.125800 -0.130000 0.983501
vn 0.091302 -0.165204 0.982024
vn 0.122096 -0.224192 0.966866
vn 0.155412 -0.161412 0.974573
vn 0.125800 -0.130000 0.983501
vn 0.155412 -0.161412 0.974573
vn 0.172210 -0.103006 0.979660
vn 0.147408 -0.088005 0.985153
vn 0.125800 -0.130000 0.983501
vn 0.147408 -0.088005 0.985153
vn 0.106599 -0.061600 0.992392
vn 0.057499 -0.057499 0.996688
vn 0.125800 -0.130000 0.983501
vn 0.057499 -0.057499 0.996688
vn 0.061600 -0.106599 0.992392
vn 0.091302 -0.165204 0.982024
vn -0.046803 0.165711 0.985063
vn -0.001900 0.164610 0.986357
vn -0.002000 0.181806 0.983332
vn -0.054003 0.190712 0.980160
vn -0.046803 0.165711 0.985063
vn -0.054003 0.190712 0.980160
vn -0.114004 0.189007 0.975336
vn -0.091805 0.153008 0.983952
vn -0.046803 0.165711 0.985063
vn -0.091805 0.153008 0.983952
vn -0.061600 0.106599 0.992392
vn -0.021000 0.078499 0.996693
vn -0.046803 0.165711 0.985063
vn -0.021000 0.078499 0.996693
vn 0.000000 0.123099 0.992394
vn -0.001900 0.164610 0.986357
vn 0.111104 0.111504 0.987534
vn 0.135209 0.077705 0.987765
vn 0.138995 0.079897 0.987065
vn 0.113099 0.113399 0.987091
vn 0.111104 0.111504 0.987534
vn 0.113099 0.113399 0.987091
vn 0.081105 0.141809 0.986566
vn 0.078004 0.136607 0.987550
vn 0.111104 0.111504 0.987534
vn 0.078004 0.136607 0.987550
vn 0.061600 0.106599 0.992392
vn 0.057499 0.057499 0.996688
vn 0.111104 0.111504 0.987534
vn 0.057499 0.057499 0.996688
vn 0.106599 0.061600 0.992392
vn 0.135209 0.077705 0.987765
vn -0.218317 -0.060905 0.973976
vn -0.217702 -0.003400 0.976009
vn -0.386209 -0.012800 0.922322
vn -0.412020 -0.122206 0.902943
vn -0.218317 -0.060905 0.973976
vn -0.412020 -0.122206 0.902943
vn -0.391126 -0.232216 0.890560
vn -0.198300 -0.115600 0.973300
vn -0.218317 -0.060905 0.973976
vn -0.198300 -0.115600 0.973300
vn -0.106599 -0.061600 0.992392
vn -0.078499 -0.021000 0.996693
vn -0.218317 -0.060905 0.973976
vn -0.078499 -0.021000 0.996693
vn -0.123099 0.000000 0.992394
vn -0.217702 -0.003400 0.976009
vn 0.048301 -0.194502 0.979712
vn -0.003800 -0.209405 0.977822
vn -0.011300 -0.342396 0.939488
vn 0.068204 -0.286816 0.955555
vn 0.048301 -0.194502 0.979712
vn 0.068204 -0.286816 0.955555
vn 0.122096 -0.224192 0.966866
vn 0.091302 -0.165204 0.982024
vn 0.048301 -0.194502 0.979712
vn 0.091302 -0.165204 0.982024
vn 0.061600 -0.106599 0.992392
vn 0.021000 -0.078499 0.996693
vn 0.048301 -0.194502 0.979712
vn 0.021000 -0.078499 0.996693
vn 0.000000 -0.123099 0.992394
vn -0.003800 -0.209405 0.977822
vn 0.153811 0.040403 0.987274
vn 0.160700 -0.001400 0.987002
vn 0.171611 -0.001300 0.985164
vn 0.158707 0.041802 0.986440
vn 0.153811 0.040403 0.987274
vn 0.158707 0.041802 0.986440
vn 0.138995 0.079897 0.987065
vn 0.135209 0.077705 0.987765
vn 0.153811 0.040403 0.987274
vn 0.135209 0.077705 0.987765
vn 0.106599 0.061600 0.992392
vn 0.078499 0.021000 0.996693
vn 0.153811 0.040403 0.987274
vn 0.078499 0.021000 0.996693
vn 0.123099 0.000000 0.992394
vn 0.160700 -0.001400 0.987002
s off
g polySurface4 polySurface3 minion_all:Mesh
usemtl minion_all:Detalhe
f 1//1 39//2 60//3 23//4
f 1//5 23//6 59//7 38//8
f 1//9 38//10 71//11 35//12
f 1//13 35//14 72//15 39//16
f 2//17 27//18 62//19 26//20
f 2//21 26//22 63//23 37//24
f 2//25 37//26 73//27 36//28
f 2//29 36//30 72//31 35//32
f 2//33 35//34 71//35 34//36
f 2//37 34//38 70//39 33//40
f 2//41 33//42 69//43 32//44
f 2//45 32//46 68//47 31//48
f 2//49 31//50 67//51 30//52
f 2//53 30//54 66//55 29//56
f 2//57 29//58 65//59 28//60
f 2//61 28//62 64//63 27//64
f 3//65 41//66 57//67 20//68
f 3//69 20//70 56//71 40//72
f 3//73 40//74 68//75 32//76
f 3//77 32//78 69//79 41//80
f 4//81 43//82 54//83 17//84
f 4//85 17//86 53//87 42//88
f 4//89 42//90 65//91 29//92
f 4//93 29//94 66//95 43//96
f 5//97 44//98 61//99 24//100
f 5//101 24//102 60//103 39//104
f 5//105 39//106 72//107 36//108
f 5//109 36//110 73//111 44//112
f 6//113 46//114 50//115 14//116
f 6//117 14//118 51//119 45//120
f 6//121 45//122 63//123 26//124
f 6//125 26//126 62//127 46//128
f 7//129 47//130 58//131 21//132
f 7//133 21//134 57//135 41//136
f 7//137 41//138 69//139 33//140
f 7//141 33//142 70//143 47//144
f 8//145 48//146 55//147 18//148
f 8//149 18//150 54//151 43//152
f 8//153 43//154 66//155 30//156
f 8//157 30//158 67//159 48//160
f 9//161 45//162 51//163 25//164
f 9//165 25//166 61//167 44//168
f 9//169 44//170 73//171 37//172
f 9//173 37//174 63//175 45//176
f 10//177 49//178 52//179 15//180
f 10//181 15//182 50//183 46//184
f 10//185 46//186 62//187 27//188
f 10//189 27//190 64//191 49//192
f 11//193 38//194 59//195 22//196
f 11//197 22//198 58//199 47//200
f 11//201 47//202 70//203 34//204
f 11//205 34//206 71//207 38//208
f 12//209 40//210 56//211 19//212
f 12//213 19//214 55//215 48//216
f 12//217 48//218 67//219 31//220
f 12//221 31//222 68//223 40//224
f 13//225 42//226 53//227 16//228
f 13//229 16//230 52//231 49//232
f 13//233 49//234 64//235 28//236
f 13//237 28//238 65//239 42//240
